<svg xmlns="http://www.w3.org/2000/svg" xmlns:xlink="http://www.w3.org/1999/xlink" width="500" zoomAndPan="magnify" viewBox="0 0 375 374.999991" height="500" preserveAspectRatio="xMidYMid meet" version="1.0"><path fill="#f6f6e9" d="M 189.226562 305.972656 C 183.558594 309.664062 123.464844 312.867188 99.085938 312.125 C 74.699219 311.386719 49.824219 320.289062 49.335938 300.273438 C 49.183594 293.914062 48.074219 285.035156 47.125 275.773438 C 45.066406 255.890625 43.683594 234.238281 53.765625 231.980469 C 68.546875 228.667969 144.519531 224.449219 144.519531 224.449219 L 187.738281 228.390625 C 187.738281 228.390625 188.324219 234.488281 189.03125 243.257812 C 190.789062 265.035156 193.261719 303.335938 189.226562 305.972656 Z M 189.226562 305.972656 " fill-opacity="1" fill-rule="nonzero"/><path fill="#61a6ab" d="M 189.03125 243.257812 L 179.148438 261.148438 C 179.148438 261.148438 80.578125 261.128906 58.058594 265.941406 C 53.167969 266.988281 49.644531 270.660156 47.125 275.773438 C 45.066406 255.890625 43.683594 234.238281 53.765625 231.980469 C 68.546875 228.667969 144.519531 224.449219 144.519531 224.449219 L 187.738281 228.390625 C 187.738281 228.390625 188.324219 234.488281 189.03125 243.257812 Z M 189.03125 243.257812 " fill-opacity="1" fill-rule="nonzero"/><path fill="#ffce6d" d="M 186.828125 301.542969 C 186.828125 301.542969 120.023438 307.453125 91.453125 308.433594 C 62.878906 309.417969 58.449219 305.972656 63.375 299.078125 C 68.300781 292.183594 84.308594 293.167969 102.042969 292.429688 C 119.773438 291.691406 183.953125 289.109375 183.953125 289.109375 C 190.972656 288.828125 186.828125 301.542969 186.828125 301.542969 Z M 186.828125 301.542969 " fill-opacity="1" fill-rule="nonzero"/><path fill="#ed5b2d" d="M 257.707031 142.84375 C 222.800781 131.023438 221.058594 134.882812 203.527344 150.597656 C 203.527344 150.597656 135.886719 221.988281 130.085938 234.140625 C 129.476562 235.421875 128.988281 236.699219 128.589844 237.980469 C 115.425781 239.148438 102.234375 239.839844 89.015625 240.113281 C 84.746094 240.203125 80.480469 240.28125 76.210938 240.328125 C 75.496094 240.332031 73.4375 240.738281 73.59375 241.820312 C 75.105469 252.570312 76.710938 263.308594 78.332031 274.042969 C 78.796875 277.089844 79.253906 280.144531 79.714844 283.195312 C 79.804688 283.78125 81 283.726562 81.367188 283.664062 C 84.003906 283.199219 86.726562 283.445312 89.386719 283.445312 C 92.199219 283.445312 95 283.382812 97.804688 283.257812 C 103.527344 283.015625 109.246094 282.558594 114.949219 282.03125 C 126.140625 280.996094 137.304688 279.644531 148.53125 279.128906 C 151.070312 279.015625 153.605469 278.964844 156.144531 278.957031 C 169.804688 286.6875 187.386719 296.042969 201.457031 304.402344 C 225.757812 318.851562 232.15625 325.089844 253.75 295.207031 C 275.339844 265.328125 315.730469 219.683594 320.984375 212.785156 C 323.0625 210.058594 324.34375 205.324219 325.28125 199.949219 C 326.714844 191.75 327.363281 182.050781 328.863281 175.699219 C 328.871094 175.691406 328.871094 175.683594 328.871094 175.683594 C 331.351562 165.175781 292.613281 154.65625 257.707031 142.84375 Z M 152.242188 277.019531 C 146.523438 277.234375 140.8125 277.664062 135.117188 278.179688 C 123.816406 279.195312 112.542969 280.570312 101.207031 281.144531 C 97.992188 281.304688 94.769531 281.40625 91.546875 281.414062 C 88.878906 281.417969 86.160156 281.226562 83.492188 281.492188 C 81.933594 270.976562 80.378906 260.460938 78.789062 249.953125 C 78.402344 247.386719 77.972656 244.820312 77.5625 242.261719 C 91.945312 241.992188 106.34375 241.792969 120.679688 240.46875 C 123.179688 240.238281 125.65625 239.941406 128.132812 239.601562 C 126.042969 248.160156 128.429688 256.441406 132.660156 262.363281 C 130.660156 262.675781 128.628906 261.347656 127.515625 259.761719 C 125.773438 257.273438 125.503906 254.261719 125.386719 251.324219 C 125.34375 250.132812 122.988281 250.511719 122.980469 251.53125 C 122.960938 253.820312 122.796875 256.109375 122.453125 258.371094 C 122.292969 259.433594 122.152344 260.53125 121.863281 261.566406 C 121.804688 261.773438 121.742188 261.992188 121.625 262.183594 C 121.542969 262.320312 121.46875 262.363281 121.476562 262.382812 C 121.105469 262.332031 120.738281 261.820312 120.589844 261.546875 C 120.101562 260.6875 119.996094 259.582031 119.796875 258.621094 C 119.5625 257.476562 119.304688 256.332031 119.050781 255.1875 C 118.832031 254.191406 118.578125 253.183594 118.34375 252.160156 C 118.660156 250.570312 118.53125 248.929688 117.585938 247.613281 C 117.097656 246.929688 115.035156 247.484375 115.375 248.417969 C 116.132812 250.707031 115.433594 253.882812 113.773438 256.054688 C 113.238281 253.773438 112.050781 251.671875 109.960938 250.527344 C 106.460938 248.601562 101.914062 249.644531 98.886719 252.003906 C 97.007812 253.472656 95.726562 255.414062 94.816406 257.542969 C 94.800781 257.511719 94.789062 257.484375 94.777344 257.453125 C 93.804688 255.125 93.277344 252.617188 92.96875 250.121094 C 92.847656 249.136719 90.976562 249.8125 90.808594 250.5 C 90.359375 252.371094 90.308594 254.164062 90.660156 256.0625 C 90.988281 257.84375 91.613281 259.476562 92.46875 261.074219 C 92.730469 261.5625 93.015625 262.039062 93.308594 262.507812 C 93.289062 262.589844 93.273438 262.675781 93.257812 262.757812 C 92.800781 264.9375 92.402344 267.15625 92.242188 269.375 C 92.09375 271.363281 92.070312 273.546875 92.828125 275.433594 C 93.535156 277.1875 94.839844 278.621094 96.808594 278.871094 C 98.996094 279.148438 101.179688 278.019531 102.339844 276.179688 C 105.007812 271.953125 100.796875 266.707031 98.402344 263.402344 C 97.972656 262.808594 97.546875 262.210938 97.128906 261.601562 C 97.457031 260.261719 97.863281 258.957031 98.398438 257.730469 C 98.699219 257.035156 99.039062 256.347656 99.453125 255.703125 C 99.296875 256.929688 99.316406 258.199219 99.417969 259.386719 C 99.585938 261.347656 100.171875 263.402344 101.464844 264.929688 C 102.71875 266.417969 104.621094 267.375 106.5625 267.511719 C 108.648438 267.65625 110.789062 266.878906 112.183594 265.296875 C 113.398438 263.914062 113.964844 262.054688 114.09375 260.25 C 114.132812 259.734375 114.140625 259.207031 114.121094 258.675781 C 115.246094 257.871094 116.214844 256.828125 116.960938 255.621094 C 117.058594 256.132812 117.148438 256.65625 117.246094 257.167969 C 117.496094 258.539062 117.695312 259.960938 118.074219 261.296875 C 118.382812 262.378906 118.988281 263.347656 120.070312 263.773438 C 121.15625 264.199219 122.503906 263.964844 123.335938 263.117188 C 124.050781 262.382812 124.269531 261.347656 124.453125 260.367188 C 124.710938 260.855469 125.015625 261.316406 125.375 261.742188 C 126.359375 262.894531 127.703125 263.839844 129.175781 264.25 C 130.78125 264.699219 132.3125 264.53125 133.757812 263.800781 C 134.304688 264.460938 134.871094 265.097656 135.457031 265.683594 C 138.015625 268.242188 144.429688 272.253906 152.722656 277.019531 C 152.5625 277.015625 152.402344 277.015625 152.242188 277.019531 Z M 105.109375 259.601562 C 106.878906 260.46875 108.738281 260.628906 110.492188 260.261719 C 110.449219 261.683594 110.121094 263.066406 109.34375 264.121094 C 108.601562 265.125 107.894531 265.183594 106.742188 264.757812 C 105.21875 264.199219 104.140625 262.855469 103.574219 261.375 C 103.144531 260.257812 102.9375 259.058594 102.851562 257.855469 C 103.476562 258.582031 104.269531 259.1875 105.109375 259.601562 Z M 104.179688 253.683594 C 104.25 253.214844 104.488281 252.476562 104.847656 252.09375 C 105.574219 252.058594 106.398438 252.179688 107.125 252.558594 C 108.398438 253.21875 109.269531 254.46875 109.761719 255.785156 C 110.042969 256.550781 110.269531 257.4375 110.398438 258.367188 C 110.164062 258.417969 109.925781 258.457031 109.6875 258.476562 C 107.882812 258.601562 106.003906 257.761719 104.9375 256.289062 C 104.390625 255.542969 104.035156 254.609375 104.179688 253.683594 Z M 98.242188 276.320312 C 98.164062 276.292969 98.003906 276.253906 97.960938 276.238281 C 96.929688 275.765625 96.429688 274.410156 96.179688 273.402344 C 95.746094 271.644531 95.871094 269.753906 96.070312 267.980469 C 96.121094 267.542969 96.171875 267.097656 96.230469 266.648438 C 96.910156 267.613281 97.574219 268.589844 98.132812 269.636719 C 98.945312 271.136719 99.65625 272.925781 99.335938 274.648438 C 99.226562 275.214844 98.949219 275.8125 98.492188 276.183594 C 98.441406 276.222656 98.230469 276.363281 98.320312 276.308594 C 98.300781 276.308594 98.273438 276.3125 98.242188 276.320312 Z M 98.242188 276.320312 " fill-opacity="1" fill-rule="nonzero"/><path fill="#f6f6e9" d="M 311.898438 184.289062 C 310.117188 188.347656 306.335938 190.558594 303.429688 193.679688 C 301.867188 195.351562 300.546875 197.175781 299.382812 199.144531 C 298.226562 201.09375 296.605469 202.6875 294.753906 203.980469 C 291.671875 206.128906 287.480469 207.660156 285.757812 211.253906 C 284.835938 213.175781 284.933594 215.371094 284.726562 217.441406 C 284.527344 219.425781 284.007812 221.414062 282.601562 222.898438 C 280.09375 225.550781 276.347656 225.988281 273.082031 227.183594 C 271.566406 227.734375 270.1875 228.511719 269.203125 229.824219 C 268.175781 231.195312 267.726562 232.917969 267.429688 234.578125 C 266.792969 238.121094 266.84375 241.914062 265.191406 245.195312 C 263.277344 249.007812 259.339844 251.273438 255.386719 252.457031 C 253.390625 253.054688 251.160156 253.335938 249.609375 254.859375 C 248.246094 256.203125 247.511719 258.113281 247.0625 259.941406 C 246.148438 263.652344 246.292969 267.644531 244.605469 271.15625 C 242.910156 274.6875 238.878906 277.652344 234.851562 276.089844 C 232.96875 275.355469 231.679688 273.726562 231.429688 271.722656 C 231.199219 269.855469 231.65625 267.921875 231.023438 266.109375 C 230.769531 265.363281 230.246094 264.488281 229.410156 264.320312 C 228.523438 264.140625 227.578125 264.839844 226.84375 265.253906 C 225.121094 266.210938 223.351562 266.789062 221.359375 266.488281 C 219.617188 266.222656 217.957031 265.394531 216.761719 264.089844 C 215.679688 262.917969 215.210938 261.425781 215.019531 259.875 C 214.722656 257.515625 215.039062 254.023438 212.261719 253.066406 C 211.257812 252.71875 210.164062 252.6875 209.160156 253.054688 C 208.285156 253.375 207.558594 253.984375 206.703125 254.339844 C 205.136719 254.988281 203.425781 255.238281 201.734375 255.039062 C 198.550781 254.65625 195.589844 252.640625 194.226562 249.730469 C 193.425781 248.019531 193.707031 246.089844 192.921875 244.390625 C 192.28125 243.003906 190.832031 241.523438 189.167969 241.800781 C 187.609375 242.058594 186.191406 243.113281 184.808594 243.820312 C 183.1875 244.640625 181.445312 245.277344 179.597656 245.136719 C 175.855469 244.847656 173.464844 241.433594 172.34375 238.167969 C 172.042969 237.285156 171.828125 236.390625 171.683594 235.472656 C 171.578125 234.839844 171.507812 234.148438 171.21875 233.574219 C 170.28125 231.722656 167.957031 232.539062 166.472656 233.074219 C 162.660156 234.4375 158.339844 235.324219 154.371094 234.0625 C 150.601562 232.867188 147.199219 229.253906 148.113281 225.042969 C 148.867188 221.574219 151.894531 219.878906 155.109375 219.132812 C 156.558594 218.796875 158.035156 218.605469 159.476562 218.230469 C 160.632812 217.929688 161.707031 217.574219 162.464844 216.570312 C 163.574219 215.117188 163.316406 213.09375 163.179688 211.386719 C 163.03125 209.492188 162.917969 207.515625 163.984375 205.832031 C 165.445312 203.53125 168.171875 202.84375 170.710938 202.539062 C 171.964844 202.390625 173.230469 202.335938 174.484375 202.167969 C 174.902344 202.109375 174.980469 202.101562 175.277344 202.039062 C 175.554688 201.980469 175.828125 201.914062 176.101562 201.839844 C 176.210938 201.808594 176.3125 201.773438 176.414062 201.734375 C 176.464844 201.714844 176.640625 201.652344 176.644531 201.644531 C 176.769531 201.589844 176.882812 201.535156 177.007812 201.472656 C 177.011719 201.472656 177.210938 201.351562 177.230469 201.34375 C 177.636719 201.078125 177.894531 200.847656 178.164062 200.429688 C 178.484375 199.933594 178.679688 199.351562 178.789062 198.777344 C 179.191406 196.65625 178.335938 194.65625 178.453125 192.535156 C 178.664062 188.699219 181.140625 185.261719 184.375 183.332031 C 184.839844 183.054688 185.320312 182.816406 185.816406 182.605469 C 185.148438 180.308594 184.113281 178.121094 182.738281 176.167969 C 185.933594 177.828125 189.058594 179.699219 191.996094 181.800781 C 193.5 181.910156 195.089844 181.992188 196.300781 181.273438 C 197.808594 180.371094 198.292969 178.425781 198.453125 176.796875 C 198.660156 174.6875 198.285156 172.585938 198.3125 170.46875 C 198.335938 168.378906 198.84375 166.289062 200.226562 164.667969 C 201.429688 163.261719 203.097656 162.355469 204.84375 161.828125 C 206.664062 161.28125 208.601562 161.15625 210.492188 161.292969 C 212.207031 161.414062 213.855469 161.9375 215.566406 162.128906 C 217.117188 162.308594 218.386719 162.007812 219.277344 160.625 C 219.917969 159.613281 220.175781 158.425781 220.125 157.242188 C 220.085938 156.378906 219.824219 155.554688 219.714844 154.707031 C 219.332031 151.878906 219.585938 148.078125 222.273438 146.398438 C 223.152344 145.851562 224.152344 145.621094 225.1875 145.648438 C 226.351562 145.679688 227.449219 146.101562 228.605469 146.148438 C 230.476562 146.21875 232.097656 144.683594 232.496094 142.921875 C 232.683594 142.109375 234.542969 141.828125 234.375 142.785156 C 234.066406 144.574219 232.921875 146.089844 231.339844 146.957031 C 229.4375 148.007812 227.609375 147.679688 225.570312 147.363281 C 224.722656 147.234375 223.886719 147.195312 223.222656 147.8125 C 222.773438 148.238281 222.496094 148.824219 222.292969 149.394531 C 221.808594 150.753906 221.757812 152.320312 221.914062 153.75 C 222.007812 154.617188 222.261719 155.453125 222.355469 156.316406 C 222.472656 157.382812 222.402344 158.429688 222.117188 159.460938 C 221.625 161.242188 220.441406 162.84375 218.691406 163.550781 C 215.390625 164.882812 211.988281 163.105469 208.625 163.152344 C 205.117188 163.195312 201.71875 164.609375 201.089844 168.425781 C 200.441406 172.347656 202.097656 176.535156 200.074219 180.238281 C 199.03125 182.140625 197.21875 183.28125 195.097656 183.625 C 194.898438 183.660156 194.699219 183.679688 194.503906 183.699219 C 198.441406 186.828125 201.945312 190.449219 204.703125 194.65625 C 210.003906 202.746094 212.1875 213.242188 208.820312 222.300781 L 208.183594 222.109375 C 201.925781 222.269531 195.90625 218.765625 192.171875 213.75 C 188.433594 208.734375 186.808594 202.367188 186.679688 196.109375 C 186.609375 192.628906 186.972656 189.132812 186.503906 185.679688 C 186.453125 185.300781 186.390625 184.917969 186.3125 184.539062 C 184.0625 185.679688 182.300781 187.851562 181.558594 190.238281 C 181.28125 191.132812 181.15625 192.082031 181.171875 193.015625 C 181.191406 193.949219 181.476562 194.835938 181.578125 195.753906 C 181.773438 197.441406 181.625 199.28125 180.738281 200.769531 C 179.339844 203.117188 176.664062 203.863281 174.113281 204.1875 C 172.910156 204.335938 171.695312 204.398438 170.484375 204.539062 C 169.429688 204.660156 168.394531 204.859375 167.527344 205.316406 C 167.367188 205.402344 167.496094 205.3125 167.265625 205.484375 C 167.160156 205.5625 167.050781 205.640625 166.957031 205.730469 C 166.859375 205.8125 166.773438 205.902344 166.628906 206.082031 C 166.171875 206.65625 165.925781 207.394531 165.835938 208.148438 C 165.605469 210.101562 166.125 212.0625 165.964844 214.019531 C 165.683594 217.496094 162.949219 219.355469 159.804688 220.132812 C 157.289062 220.765625 154.011719 220.71875 152.066406 222.550781 C 150.917969 223.640625 150.460938 225.363281 150.722656 226.898438 C 151.058594 228.847656 152.300781 230.378906 153.953125 231.40625 C 157.316406 233.503906 161.527344 232.746094 165.070312 231.585938 C 167.238281 230.878906 169.347656 229.980469 171.636719 230.855469 C 173.117188 231.421875 173.863281 232.636719 174.136719 234.132812 C 174.722656 237.304688 175.695312 241.085938 178.769531 242.777344 C 181.71875 244.402344 184.679688 241.535156 187.320312 240.519531 C 188.921875 239.902344 190.683594 239.644531 192.285156 240.417969 C 194.082031 241.277344 195.347656 243.046875 195.785156 244.964844 C 195.996094 245.910156 195.957031 246.875 196.214844 247.8125 C 196.414062 248.539062 196.722656 249.207031 197.140625 249.832031 C 197.957031 251.046875 199.121094 252.050781 200.453125 252.675781 C 201.757812 253.285156 203.230469 253.582031 204.664062 253.382812 C 205.425781 253.273438 206.113281 252.976562 206.761719 252.589844 C 207.734375 252.011719 208.699219 251.542969 209.824219 251.347656 C 211.480469 251.066406 213.46875 251.347656 214.84375 252.382812 C 215.914062 253.1875 216.464844 254.402344 216.730469 255.683594 C 217.300781 258.5 216.84375 261.65625 219.398438 263.632812 C 220.613281 264.570312 222.242188 265.125 223.769531 264.808594 C 225.789062 264.398438 227.25 262.679688 229.410156 262.609375 C 231.308594 262.546875 232.683594 263.78125 233.289062 265.503906 C 233.925781 267.335938 233.476562 269.238281 233.707031 271.109375 C 233.9375 273.007812 235.238281 274.617188 237.242188 274.726562 C 239.109375 274.828125 240.660156 273.457031 241.636719 272 C 243.675781 268.945312 243.597656 265.019531 244.222656 261.542969 C 244.914062 257.636719 246.554688 253.753906 250.421875 252.09375 C 252.445312 251.226562 254.65625 250.945312 256.691406 250.089844 C 258.472656 249.34375 260.164062 248.3125 261.441406 246.855469 C 263.9375 244.003906 264.085938 240.09375 264.542969 236.527344 C 264.984375 233.027344 265.859375 229.433594 268.855469 227.242188 C 271.6875 225.167969 275.242188 224.90625 278.355469 223.476562 C 279.886719 222.777344 281.050781 221.710938 281.601562 220.082031 C 282.257812 218.167969 282.09375 216.050781 282.363281 214.0625 C 282.632812 212.070312 283.382812 210.257812 284.710938 208.734375 C 285.988281 207.261719 287.601562 206.121094 289.25 205.097656 C 290.953125 204.039062 292.734375 203.085938 294.285156 201.792969 C 295.160156 201.0625 295.976562 200.226562 296.605469 199.265625 C 297.199219 198.367188 297.707031 197.414062 298.316406 196.527344 C 299.550781 194.71875 300.980469 193.0625 302.5625 191.554688 C 304.109375 190.082031 305.851562 188.84375 307.261719 187.226562 C 309.679688 184.457031 311.152344 180.507812 309.074219 177.085938 C 307.867188 175.085938 305.691406 174.335938 303.621094 174.28125 C 301.253906 174.226562 299.164062 174.738281 296.894531 175.480469 C 296.664062 175.554688 296.433594 175.632812 296.207031 175.710938 C 296.097656 175.75 295.996094 175.789062 295.886719 175.828125 C 295.867188 175.832031 295.855469 175.839844 295.839844 175.839844 C 295.835938 175.84375 295.828125 175.84375 295.820312 175.84375 C 295.480469 175.972656 295.140625 176.109375 294.804688 176.25 C 294.492188 176.378906 294.175781 176.515625 293.867188 176.664062 C 293.371094 176.898438 292.453125 176.996094 292.089844 176.457031 C 291.730469 175.917969 292.207031 175.332031 292.703125 175.09375 C 293.78125 174.574219 294.921875 174.15625 296.054688 173.773438 C 300.433594 172.289062 306.746094 171.003906 310.445312 174.648438 C 313 177.117188 313.273438 181.144531 311.898438 184.289062 Z M 228.550781 212.460938 C 220.226562 215.023438 212.992188 222.640625 213.25 231.34375 L 213.257812 231.859375 C 218.027344 229.574219 223.589844 229.753906 228.832031 230.457031 C 234.074219 231.15625 239.328125 232.332031 244.601562 231.875 C 254.015625 231.058594 262.714844 224.597656 266.222656 215.820312 C 262.226562 216.75 258.125 215.265625 254.207031 214.039062 C 245.914062 211.425781 236.871094 209.898438 228.550781 212.460938 Z M 220.613281 204.847656 L 221.96875 205.5625 C 230.691406 205.351562 238.441406 199.863281 244.433594 193.53125 C 250.425781 187.191406 255.289062 179.792969 261.746094 173.929688 C 255.546875 176.367188 248.832031 177.09375 242.3125 178.457031 C 235.789062 179.820312 229.148438 181.992188 224.386719 186.65625 C 219.636719 191.316406 217.347656 199.042969 220.613281 204.847656 Z M 220.613281 204.847656 " fill-opacity="1" fill-rule="nonzero"/><path fill="#61a6ab" d="M 177.359375 80.933594 C 179.617188 79.269531 182.054688 77.859375 184.703125 76.945312 C 197.917969 72.375 233.675781 60.394531 251.53125 58.207031 C 261.25 57.019531 267.894531 56.445312 272.285156 56.183594 C 276.636719 55.917969 280.5625 58.78125 281.636719 63.011719 C 284.691406 75.042969 291.03125 99.9375 295.371094 116.578125 C 299.578125 132.707031 305.53125 160.269531 308.617188 174.816406 C 309.71875 180 306.167969 185.015625 300.914062 185.699219 C 288.945312 187.261719 267.828125 190.140625 248.335938 193.421875 C 226.003906 197.175781 212.820312 199.355469 207.808594 200.179688 C 206.390625 200.410156 205.050781 200.996094 203.886719 201.84375 C 200.652344 204.199219 192.9375 208.640625 184.742188 204.746094 C 183.179688 204 181.457031 203.671875 179.738281 203.914062 C 166.519531 205.761719 110.414062 213.742188 82.589844 219.960938 C 77.574219 221.078125 72.636719 217.804688 71.695312 212.75 C 69.464844 200.746094 65.621094 179.820312 63.125 164.847656 C 60.332031 148.089844 56.691406 116.128906 55.085938 101.53125 C 54.589844 97.050781 57.457031 92.882812 61.824219 91.757812 C 76.699219 87.910156 112.769531 80.476562 163.285156 82.546875 C 163.894531 82.574219 164.5 82.65625 165.089844 82.796875 C 167.097656 83.300781 172.792969 84.296875 177.359375 80.933594 Z M 177.359375 80.933594 " fill-opacity="1" fill-rule="nonzero"/><path fill="#ffce6d" d="M 268.015625 55.109375 C 272.824219 72.644531 288.292969 129.789062 294.652344 162.90625 C 294.820312 163.78125 294.851562 164.664062 294.761719 165.542969 C 294.625 166.847656 294.34375 168.972656 293.769531 171.632812 C 293.101562 174.753906 290.546875 177.105469 287.382812 177.5 C 274.453125 179.085938 238.640625 184.070312 204.105469 194.179688 C 201.917969 194.824219 199.648438 193.460938 199.179688 191.226562 L 177.335938 88.039062 C 177.058594 86.726562 177.109375 85.363281 177.484375 84.078125 L 178.222656 81.539062 C 179.699219 76.457031 183.117188 72.164062 187.738281 69.589844 C 199.089844 63.273438 223.535156 52.472656 260.992188 50.117188 C 264.222656 49.917969 267.160156 51.984375 268.015625 55.109375 Z M 151.824219 75.839844 C 119.433594 72.863281 89.289062 78.125 76.179688 80.960938 C 72.140625 81.835938 69.296875 85.449219 69.386719 89.578125 C 69.582031 98.160156 70.132812 113.96875 71.753906 133.074219 C 73.523438 153.910156 78.707031 178.546875 81.496094 190.824219 C 82.640625 195.851562 85.128906 200.476562 88.691406 204.207031 L 90.023438 205.601562 C 92.378906 208.0625 95.882812 209.097656 99.1875 208.257812 C 133.355469 199.550781 171.300781 198.476562 182.589844 198.351562 C 184.351562 198.335938 185.683594 196.757812 185.417969 195.015625 L 169.128906 89.261719 C 168.902344 87.796875 168.3125 86.40625 167.417969 85.214844 L 166.539062 84.054688 C 163 79.378906 157.664062 76.375 151.824219 75.839844 Z M 151.824219 75.839844 " fill-opacity="1" fill-rule="nonzero"/><path fill="#f6f6e9" d="M 266.363281 123.703125 C 267.820312 129.351562 270.761719 140.9375 272.484375 149.101562 C 273.09375 151.992188 271.023438 154.765625 268.074219 154.996094 C 257.695312 155.808594 235.019531 158.027344 222.3125 162.726562 C 219.496094 163.769531 216.402344 162.101562 215.785156 159.164062 C 214.433594 152.777344 212.34375 142.835938 211.152344 137.074219 C 210.710938 134.90625 211.765625 132.722656 213.734375 131.71875 C 221.4375 127.792969 241.476562 118.851562 261.898438 120.046875 C 264.027344 120.160156 265.828125 121.640625 266.363281 123.703125 Z M 266.363281 123.703125 " fill-opacity="1" fill-rule="nonzero"/><path fill="#ed5b2d" d="M 112.460938 92.515625 C 113.886719 104.367188 119.683594 152.039062 122.621094 170.28125 C 122.960938 172.410156 121.433594 174.378906 119.285156 174.574219 C 114.292969 175.027344 105.535156 176.039062 98.191406 177.988281 C 96.0625 178.554688 93.910156 177.164062 93.5625 174.984375 C 91.804688 163.972656 87.21875 134.085938 86.6875 119.160156 C 86.25 106.773438 85.804688 98.285156 85.566406 94.027344 C 85.457031 92.160156 86.757812 90.507812 88.589844 90.160156 C 93.078125 89.3125 101.546875 88.117188 109.316406 89.273438 C 110.976562 89.523438 112.261719 90.851562 112.460938 92.515625 Z M 112.460938 92.515625 " fill-opacity="1" fill-rule="nonzero"/><path fill="#ffce6d" d="M 328.863281 175.703125 C 327.363281 182.058594 326.714844 191.753906 325.28125 199.953125 C 308.636719 221.554688 239.558594 308.832031 230.371094 309.992188 C 219.90625 311.304688 142.539062 267.183594 136.105469 257.453125 C 129.675781 247.714844 130.085938 234.140625 140.789062 237.75 C 151.488281 241.363281 233.308594 292.589844 237.578125 289.960938 C 241.847656 287.335938 255.964844 266.976562 269.757812 249.238281 C 283.441406 231.652344 328.160156 176.558594 328.863281 175.703125 Z M 328.863281 175.703125 " fill-opacity="1" fill-rule="nonzero"/><path fill="#291b25" d="M 254.601562 164.554688 C 266.347656 162.457031 278.683594 161.113281 290.574219 162.726562 C 291.160156 162.804688 290.148438 163.242188 289.90625 163.226562 C 283.179688 162.855469 276.464844 162.835938 269.75 163.375 C 257.988281 164.328125 246.335938 166.753906 234.933594 169.730469 C 229.347656 171.191406 223.769531 172.707031 218.460938 174.996094 C 213.457031 177.152344 208.808594 179.960938 204.433594 183.191406 C 204.015625 183.5 203.320312 183.722656 202.808594 183.625 C 202.371094 183.542969 202.261719 183.265625 202.632812 182.976562 C 207.589844 179.097656 213.199219 175.988281 219.042969 173.664062 C 224.753906 171.402344 230.742188 169.941406 236.691406 168.457031 C 242.621094 166.972656 248.585938 165.628906 254.601562 164.554688 Z M 286.960938 167.222656 C 277 166.375 267.019531 166.589844 257.101562 167.863281 C 247.140625 169.144531 237.289062 171.441406 227.804688 174.746094 C 222.523438 176.585938 217.277344 178.675781 212.3125 181.261719 C 211.714844 181.574219 212.523438 181.789062 212.863281 181.640625 C 217.371094 179.664062 221.886719 177.730469 226.523438 176.082031 C 231.160156 174.4375 235.878906 173.023438 240.660156 171.839844 C 250.222656 169.472656 260.027344 168.078125 269.867188 167.660156 C 275.417969 167.421875 281.003906 167.453125 286.546875 167.8125 C 286.945312 167.832031 287.660156 167.285156 286.960938 167.222656 Z M 270.453125 172.507812 C 265.6875 172.972656 260.933594 173.589844 256.214844 174.367188 C 246.714844 175.921875 237.328125 178.128906 228.125 180.945312 C 223.058594 182.496094 217.933594 184.128906 213.097656 186.316406 C 212.472656 186.597656 213.347656 186.648438 213.605469 186.558594 C 218.132812 185.0625 222.59375 183.382812 227.148438 181.960938 C 231.558594 180.585938 236.007812 179.351562 240.503906 178.257812 C 249.628906 176.039062 258.910156 174.410156 268.246094 173.414062 C 273.582031 172.84375 278.933594 172.574219 284.292969 172.210938 C 284.613281 172.191406 285.546875 171.703125 284.773438 171.699219 C 279.996094 171.660156 275.203125 172.046875 270.453125 172.507812 Z M 87.652344 194.878906 C 93.179688 192.785156 98.601562 190.519531 104.300781 188.878906 C 109.964844 187.253906 115.742188 186.027344 121.566406 185.132812 C 127.394531 184.238281 133.265625 183.632812 139.148438 183.300781 C 145.128906 182.957031 151.15625 182.753906 157.140625 182.984375 C 163.9375 183.246094 170.703125 184.308594 177.140625 186.546875 C 177.527344 186.679688 178.3125 186.160156 177.726562 185.910156 C 172.121094 183.492188 166.046875 182.410156 159.992188 181.910156 C 153.964844 181.410156 147.894531 181.421875 141.855469 181.652344 C 129.664062 182.117188 117.484375 183.5625 105.6875 186.765625 C 99.195312 188.527344 92.511719 190.628906 86.667969 194.011719 C 86.359375 194.191406 86.230469 194.570312 86.488281 194.835938 C 86.761719 195.136719 87.316406 195.003906 87.652344 194.878906 Z M 176.773438 187.988281 C 174.484375 187.316406 172.085938 187.007812 169.734375 186.6875 C 167.386719 186.371094 165.03125 186.117188 162.671875 185.921875 C 157.953125 185.53125 153.21875 185.375 148.484375 185.472656 C 139.019531 185.660156 129.597656 186.789062 120.359375 188.863281 C 115.105469 190.039062 109.832031 191.453125 104.839844 193.503906 C 104.09375 193.8125 104.570312 194.390625 105.21875 194.207031 C 109.726562 192.90625 114.210938 191.523438 118.777344 190.429688 C 123.347656 189.335938 127.972656 188.480469 132.632812 187.859375 C 141.875 186.628906 151.230469 186.277344 160.539062 186.875 C 163.101562 187.042969 165.667969 187.273438 168.230469 187.582031 C 170.902344 187.902344 173.566406 188.378906 176.246094 188.617188 C 176.5625 188.648438 177.378906 188.160156 176.773438 187.988281 Z M 175.535156 192.707031 C 175.90625 192.777344 176.53125 192.207031 175.976562 192.019531 C 171.476562 190.515625 166.640625 190.140625 161.921875 190.058594 C 157.050781 189.972656 152.164062 190.207031 147.308594 190.585938 C 137.707031 191.332031 128.164062 192.796875 118.78125 194.953125 C 116.183594 195.550781 113.59375 196.199219 111.019531 196.898438 C 108.382812 197.621094 105.714844 198.328125 103.1875 199.363281 C 102.363281 199.699219 102.929688 200.476562 103.652344 200.308594 C 105.953125 199.78125 108.203125 199.046875 110.472656 198.425781 C 112.75 197.800781 115.035156 197.203125 117.328125 196.65625 C 121.941406 195.554688 126.589844 194.617188 131.265625 193.859375 C 140.578125 192.347656 150.03125 191.40625 159.46875 191.292969 C 164.882812 191.226562 170.214844 191.691406 175.535156 192.707031 Z M 115.597656 200.300781 C 112.53125 201.226562 109.457031 202.261719 106.527344 203.574219 C 105.984375 203.8125 106.320312 204.257812 106.808594 204.097656 C 112.113281 202.367188 117.375 200.570312 122.800781 199.261719 C 128.304688 197.929688 133.886719 196.988281 139.515625 196.386719 C 142.671875 196.042969 145.835938 195.789062 149.007812 195.644531 C 149.445312 195.625 150.003906 194.9375 149.289062 194.945312 C 137.886719 195.117188 126.523438 196.996094 115.597656 200.300781 Z M 194.921875 87.796875 C 201.65625 84.027344 208.515625 80.542969 215.738281 77.800781 C 222.769531 75.140625 230.078125 73.152344 237.488281 71.910156 C 241.785156 71.191406 246.09375 70.675781 250.441406 70.433594 C 250.792969 70.414062 251.46875 70.164062 251.511719 69.746094 C 251.566406 69.289062 250.980469 69.253906 250.671875 69.269531 C 235.011719 69.988281 219.535156 73.867188 205.445312 80.753906 C 201.515625 82.675781 197.699219 84.832031 194.132812 87.363281 C 193.410156 87.867188 194.5 88.027344 194.921875 87.796875 Z M 199.167969 94.007812 C 198.464844 94.40625 199.445312 94.488281 199.789062 94.335938 C 206.316406 91.453125 212.851562 88.664062 219.660156 86.496094 C 226.421875 84.347656 233.339844 82.707031 240.34375 81.597656 C 244.34375 80.960938 248.375 80.453125 252.40625 80.039062 C 252.734375 80.007812 253.460938 79.492188 252.742188 79.511719 C 238.195312 79.910156 223.589844 83.460938 210.113281 88.851562 C 206.382812 90.347656 202.652344 92.019531 199.167969 94.007812 Z M 203.945312 102.960938 C 203.726562 103.082031 203.515625 103.261719 203.726562 103.46875 C 203.9375 103.671875 204.515625 103.480469 204.730469 103.410156 C 207.828125 102.296875 210.851562 100.964844 213.953125 99.847656 C 217.007812 98.746094 220.097656 97.738281 223.226562 96.851562 C 229.488281 95.0625 235.875 93.710938 242.332031 92.824219 C 245.984375 92.324219 249.640625 91.929688 253.328125 91.71875 C 253.71875 91.691406 254.476562 91.582031 254.691406 91.183594 C 254.894531 90.796875 254.515625 90.683594 254.164062 90.695312 C 240.675781 91.320312 227.082031 93.796875 214.402344 98.507812 C 210.890625 99.820312 207.230469 101.113281 203.945312 102.960938 Z M 214.851562 109.492188 C 211.359375 110.824219 207.667969 112.175781 204.515625 114.214844 C 203.746094 114.707031 204.59375 115.152344 205.179688 114.953125 C 208.351562 113.859375 211.390625 112.398438 214.515625 111.171875 C 217.570312 109.976562 220.664062 108.894531 223.796875 107.921875 C 230.136719 105.957031 236.621094 104.453125 243.179688 103.410156 C 246.890625 102.816406 250.632812 102.328125 254.382812 102.015625 C 255.238281 101.941406 255.777344 100.960938 254.601562 101.023438 C 240.980469 101.71875 227.589844 104.636719 214.851562 109.492188 Z M 210.316406 121.703125 C 209.714844 121.988281 210.097656 122.578125 210.671875 122.417969 C 213.660156 121.570312 216.632812 120.613281 219.617188 119.738281 C 222.605469 118.855469 225.628906 118.070312 228.664062 117.351562 C 234.734375 115.917969 240.882812 114.824219 247.078125 114.097656 C 250.582031 113.6875 254.097656 113.363281 257.621094 113.179688 C 258.621094 113.125 259.011719 111.867188 257.789062 111.898438 C 245.121094 112.25 232.515625 114.246094 220.394531 117.96875 C 216.992188 119.011719 213.546875 120.1875 210.316406 121.703125 Z M 124.867188 93.0625 C 129.652344 92.285156 134.371094 91.609375 139.238281 91.570312 C 144.132812 91.53125 149.027344 92.175781 153.84375 92.960938 C 154.253906 93.023438 155.011719 92.386719 154.363281 92.179688 C 152.015625 91.429688 149.667969 90.925781 147.21875 90.59375 C 144.742188 90.253906 142.222656 90.144531 139.722656 90.128906 C 134.757812 90.109375 129.554688 90.636719 124.808594 92.160156 C 124.214844 92.355469 124.070312 93.191406 124.867188 93.0625 Z M 124.628906 102.117188 C 126.929688 101.839844 129.21875 101.421875 131.523438 101.113281 C 133.960938 100.777344 136.414062 100.527344 138.871094 100.328125 C 143.757812 99.929688 148.660156 99.820312 153.558594 99.980469 C 154.054688 100 154.667969 99.878906 155.078125 99.578125 C 155.386719 99.34375 155.386719 99.089844 154.941406 99.070312 C 149.90625 98.875 144.867188 98.964844 139.84375 99.363281 C 137.339844 99.5625 134.859375 99.847656 132.378906 100.199219 C 129.867188 100.5625 127.304688 100.964844 124.851562 101.621094 C 124.523438 101.707031 123.90625 102.199219 124.628906 102.117188 Z M 126.003906 108.832031 C 125.554688 108.886719 124.800781 109.609375 125.664062 109.613281 C 130.777344 109.640625 135.886719 109.441406 141 109.421875 C 146.210938 109.402344 151.429688 109.503906 156.640625 109.691406 C 156.988281 109.707031 157.585938 109.578125 157.753906 109.222656 C 157.921875 108.863281 157.605469 108.722656 157.285156 108.695312 C 152.101562 108.269531 146.921875 108.070312 141.722656 108.066406 C 136.472656 108.058594 131.214844 108.199219 126.003906 108.832031 Z M 160.71875 118.804688 C 155.167969 117.433594 149.246094 117.132812 143.546875 116.972656 C 140.621094 116.886719 137.6875 116.867188 134.761719 116.964844 C 133.296875 117.015625 131.8125 117.042969 130.351562 117.203125 C 128.960938 117.359375 127.386719 117.363281 126.050781 117.769531 C 125.546875 117.921875 125.207031 118.539062 125.925781 118.65625 C 126.589844 118.765625 127.289062 118.675781 127.960938 118.65625 C 128.6875 118.636719 129.414062 118.644531 130.140625 118.636719 C 131.496094 118.625 132.859375 118.554688 134.214844 118.523438 C 137.109375 118.457031 140.003906 118.4375 142.898438 118.515625 C 148.679688 118.667969 154.421875 119.3125 160.191406 119.539062 C 160.539062 119.558594 161.398438 118.972656 160.71875 118.804688 Z M 161.078125 127.421875 C 155.746094 126.160156 150.273438 125.519531 144.800781 125.375 C 139.355469 125.234375 133.59375 125.304688 128.273438 126.617188 C 127.875 126.714844 127.4375 127.359375 128.125 127.332031 C 130.722656 127.242188 133.324219 126.945312 135.921875 126.796875 C 138.609375 126.636719 141.304688 126.597656 143.996094 126.65625 C 149.449219 126.785156 154.886719 127.339844 160.265625 128.195312 C 160.570312 128.238281 161 128.1875 161.210938 127.941406 C 161.398438 127.730469 161.386719 127.5 161.078125 127.421875 Z M 146.105469 138.921875 C 143.359375 139.066406 140.632812 139.363281 137.925781 139.808594 C 135.269531 140.25 132.53125 140.8125 129.992188 141.722656 C 129.523438 141.890625 129.359375 142.566406 130.035156 142.457031 C 132.613281 142.03125 135.160156 141.484375 137.746094 141.09375 C 140.402344 140.695312 143.085938 140.410156 145.765625 140.25 C 151.117188 139.941406 156.570312 140.085938 161.882812 140.785156 C 162.503906 140.867188 163.238281 140.007812 162.351562 139.859375 C 156.949219 138.992188 151.574219 138.628906 146.105469 138.921875 Z M 128.269531 150.964844 C 131.015625 150.695312 133.746094 150.210938 136.488281 149.878906 C 139.316406 149.539062 142.164062 149.300781 145.011719 149.164062 C 150.679688 148.894531 156.375 149.082031 162.015625 149.679688 C 162.382812 149.71875 162.96875 149.542969 163.191406 149.230469 C 163.378906 148.972656 163.335938 148.65625 162.949219 148.609375 C 157.1875 147.890625 151.394531 147.613281 145.59375 147.847656 C 142.699219 147.960938 139.8125 148.199219 136.9375 148.566406 C 134.042969 148.933594 131.058594 149.394531 128.261719 150.265625 C 127.695312 150.445312 127.476562 151.046875 128.269531 150.964844 Z M 133.21875 160.535156 C 132.667969 160.695312 132.324219 161.234375 133.167969 161.074219 C 137.933594 160.160156 142.699219 159.332031 147.539062 158.964844 C 152.449219 158.59375 157.375 158.625 162.273438 159.035156 C 162.691406 159.066406 163.277344 158.957031 163.605469 158.683594 C 163.867188 158.457031 163.875 158.238281 163.476562 158.199219 C 153.464844 157.242188 142.921875 157.722656 133.21875 160.535156 Z M 129.515625 170.554688 C 132.324219 170.25 135.117188 169.632812 137.921875 169.261719 C 140.808594 168.875 143.714844 168.589844 146.621094 168.410156 C 152.558594 168.046875 158.523438 168.101562 164.460938 168.398438 C 164.683594 168.410156 165.757812 168.007812 165.1875 167.9375 C 159.347656 167.226562 153.46875 167.144531 147.597656 167.492188 C 144.609375 167.664062 141.625 167.953125 138.652344 168.347656 C 135.703125 168.738281 132.648438 169.136719 129.785156 169.980469 C 129.425781 170.089844 128.628906 170.648438 129.515625 170.554688 Z M 162.035156 99.261719 C 163.285156 98.945312 163.984375 97.460938 164.683594 96.496094 C 165.269531 95.699219 165.992188 94.792969 166.828125 94 C 168.421875 92.496094 170.390625 91.378906 172.519531 90.78125 C 174.773438 90.148438 177.082031 90.214844 179.378906 90.707031 C 180.589844 90.964844 181.765625 91.382812 182.921875 91.820312 C 183.425781 92.007812 183.953125 92.148438 184.429688 92.386719 C 185.019531 92.675781 185.574219 93.03125 186.171875 93.300781 C 186.878906 93.617188 187.625 92.945312 187.230469 92.21875 C 186.738281 91.289062 185.90625 90.542969 185.179688 89.789062 C 184.410156 88.980469 183.289062 88.328125 182.265625 87.898438 C 180.105469 86.980469 177.855469 86.496094 175.5 86.527344 C 170.988281 86.585938 166.660156 88.542969 163.507812 91.757812 C 162.621094 92.664062 161.777344 93.679688 161.175781 94.792969 C 160.5625 95.917969 159.863281 97.507812 160.601562 98.722656 C 160.910156 99.203125 161.496094 99.398438 162.035156 99.261719 Z M 180.375 104.160156 C 175.902344 104.015625 171.394531 105.769531 168.285156 109.015625 C 167.417969 109.921875 166.5625 110.972656 165.964844 112.078125 C 165.367188 113.179688 164.78125 114.507812 164.851562 115.78125 C 164.8125 116.289062 164.820312 116.746094 164.929688 117.304688 C 165.101562 118.195312 166.421875 118.664062 167.128906 118.117188 C 167.753906 117.632812 168.105469 117.3125 168.542969 116.816406 C 169.027344 116.265625 169.148438 116.007812 169.675781 115.359375 C 170.421875 114.4375 171.148438 113.519531 172.003906 112.695312 C 172.363281 112.347656 172.730469 112 173.109375 111.671875 C 173.175781 111.628906 173.574219 111.304688 173.625 111.269531 C 173.882812 111.082031 174.136719 110.90625 174.402344 110.734375 C 174.863281 110.4375 175.347656 110.175781 175.835938 109.929688 C 175.902344 109.898438 175.9375 109.878906 175.976562 109.867188 C 176.175781 109.777344 176.375 109.691406 176.570312 109.601562 C 176.640625 109.578125 177.128906 109.390625 177.1875 109.363281 C 177.738281 109.164062 178.3125 108.984375 178.898438 108.875 C 178.980469 108.867188 179.277344 108.832031 179.320312 108.824219 C 179.636719 108.792969 179.953125 108.773438 180.265625 108.761719 C 181.585938 108.714844 182.132812 108.777344 183.417969 109.082031 C 184.550781 109.351562 185.667969 109.6875 186.761719 110.078125 C 187.316406 110.277344 187.855469 110.523438 188.414062 110.714844 C 188.9375 110.886719 189.546875 111.023438 190.015625 111.28125 C 190.410156 111.5 191.011719 111.09375 190.820312 110.632812 C 190.644531 110.214844 190.589844 109.789062 190.390625 109.371094 C 190.136719 108.851562 189.847656 108.335938 189.46875 107.898438 C 188.78125 107.09375 187.875 106.324219 186.941406 105.820312 C 184.929688 104.722656 182.660156 104.238281 180.375 104.160156 Z M 180.300781 123.082031 C 177.339844 123.671875 174.574219 125.175781 172.402344 127.261719 C 171.410156 128.207031 170.511719 129.34375 169.847656 130.546875 C 169.5 131.175781 169.175781 131.941406 169.007812 132.648438 C 168.851562 133.292969 168.9375 134.121094 168.941406 134.792969 C 168.957031 136.15625 170.628906 136.335938 171.316406 135.382812 C 171.683594 134.875 172.132812 134.554688 172.472656 134.046875 C 172.8125 133.539062 173.101562 133.105469 173.457031 132.59375 C 173.996094 131.800781 174.621094 131.03125 175.359375 130.304688 C 176.863281 128.824219 178.828125 127.757812 180.972656 127.230469 C 183.109375 126.707031 185.078125 126.777344 187.101562 127.441406 C 188.621094 127.9375 190.445312 129.082031 191.464844 130.566406 C 192.492188 132.058594 195.101562 131.03125 194.445312 129.183594 C 193.972656 127.847656 193.328125 126.695312 192.261719 125.699219 C 191.328125 124.832031 190.222656 124.207031 189.046875 123.738281 C 186.246094 122.632812 183.25 122.488281 180.300781 123.082031 Z M 177.488281 154.515625 C 177.886719 154.136719 178.15625 153.660156 178.480469 153.214844 C 179.050781 152.4375 179.707031 151.730469 180.429688 151.09375 C 181.902344 149.792969 183.707031 148.886719 185.609375 148.429688 C 189.625 147.464844 193.785156 148.945312 196.96875 151.414062 C 198.480469 152.585938 200.242188 150.777344 199.03125 149.300781 C 195.714844 145.253906 189.835938 143.890625 184.859375 144.976562 C 182.414062 145.511719 180.164062 146.71875 178.246094 148.308594 C 176.375 149.859375 174.335938 152.039062 174.53125 154.628906 C 174.589844 155.382812 175.488281 156.136719 176.214844 155.582031 C 176.660156 155.242188 177.089844 154.894531 177.488281 154.515625 Z M 177 176.585938 C 178.046875 175.949219 178.753906 175.015625 179.457031 174.03125 C 180.0625 173.191406 180.789062 172.457031 181.515625 171.71875 C 183.007812 170.207031 184.640625 168.925781 186.589844 168.046875 C 190.09375 166.457031 194.628906 166.417969 197.804688 168.757812 C 199.039062 169.671875 200.59375 167.664062 199.457031 166.636719 C 197.519531 164.886719 195.109375 163.75 192.511719 163.484375 C 190.042969 163.234375 187.527344 163.679688 185.25 164.644531 C 182.851562 165.660156 180.652344 167.117188 178.703125 168.84375 C 176.851562 170.480469 173.917969 173.519531 175.628906 176.148438 C 175.914062 176.597656 176.5 176.894531 177 176.585938 Z M 213.25 289.632812 C 206.988281 286.019531 200.710938 282.429688 194.425781 278.855469 C 181.84375 271.695312 169.230469 264.589844 156.558594 257.59375 C 149.644531 253.78125 142.769531 249.855469 135.6875 246.371094 C 135.445312 246.25 134.539062 246.589844 134.917969 246.816406 C 140.820312 250.367188 146.910156 253.601562 152.9375 256.9375 C 159.210938 260.421875 165.488281 263.914062 171.753906 267.425781 C 184.382812 274.507812 196.96875 281.652344 209.515625 288.871094 C 216.296875 292.777344 223.019531 296.828125 229.914062 300.542969 C 230.1875 300.691406 231.207031 300.242188 230.914062 300.054688 C 225.140625 296.390625 219.167969 293.046875 213.25 289.632812 Z M 210.421875 294.140625 C 205.507812 291.226562 200.589844 288.328125 195.65625 285.445312 C 185.765625 279.65625 175.828125 273.929688 165.804688 268.371094 C 160.105469 265.214844 154.472656 261.902344 148.660156 258.949219 C 148.46875 258.855469 147.734375 259.175781 147.835938 259.238281 C 152.628906 262.21875 157.578125 264.949219 162.460938 267.765625 C 167.375 270.601562 172.265625 273.484375 177.175781 276.332031 C 187.03125 282.0625 196.871094 287.832031 206.679688 293.652344 C 212.261719 296.960938 217.757812 300.507812 223.527344 303.488281 C 223.828125 303.644531 225.070312 303.148438 224.882812 303.015625 C 220.273438 299.765625 215.269531 297.019531 210.421875 294.140625 Z M 322.453125 189.136719 C 311.320312 203.132812 300.382812 217.273438 289.21875 231.234375 C 278.195312 245.019531 267.019531 258.6875 255.710938 272.238281 C 249.367188 279.84375 242.832031 287.304688 236.605469 295.015625 C 230.929688 291.734375 225.121094 288.6875 219.339844 285.59375 C 212.789062 282.082031 206.242188 278.570312 199.679688 275.066406 C 186.335938 267.933594 173 260.789062 159.636719 253.683594 C 152.78125 250.039062 145.941406 246.351562 138.988281 242.894531 C 138.722656 242.765625 137.882812 243.117188 138.273438 243.34375 C 150.609375 250.441406 163.265625 257.003906 175.808594 263.722656 C 189.140625 270.867188 202.464844 278.003906 215.804688 285.136719 C 222.535156 288.738281 229.230469 292.417969 236.078125 295.792969 C 236.042969 296.253906 237.132812 296.253906 237.480469 295.871094 C 243.550781 289.128906 249.3125 282.101562 255.121094 275.136719 C 260.8125 268.308594 266.496094 261.476562 272.128906 254.601562 C 283.289062 240.988281 294.308594 227.265625 305.160156 213.40625 C 311.378906 205.460938 317.539062 197.472656 323.523438 189.34375 C 323.871094 188.855469 322.707031 188.824219 322.453125 189.136719 Z M 318.707031 201.859375 C 310.691406 211.710938 302.78125 221.640625 294.894531 231.601562 C 287.023438 241.546875 279.171875 251.503906 271.3125 261.457031 C 269.128906 264.230469 266.941406 266.996094 264.765625 269.773438 C 262.585938 272.558594 260.3125 275.296875 258.292969 278.203125 C 257.945312 278.699219 259.402344 278.421875 259.640625 278.160156 C 261.757812 275.765625 263.707031 273.21875 265.695312 270.71875 C 267.660156 268.242188 269.621094 265.765625 271.585938 263.285156 C 275.5 258.328125 279.417969 253.375 283.328125 248.417969 C 291.179688 238.476562 299.023438 228.53125 306.84375 218.558594 C 311.199219 213.007812 315.492188 207.414062 319.78125 201.8125 C 320.070312 201.453125 318.90625 201.605469 318.707031 201.859375 Z M 150.453125 294.152344 C 158.003906 293.785156 165.578125 293.535156 173.109375 292.851562 C 173.65625 292.800781 174.480469 291.933594 173.5 291.933594 C 166.890625 291.902344 160.273438 292.234375 153.667969 292.492188 C 146.996094 292.75 140.324219 293.046875 133.648438 293.328125 C 120.359375 293.894531 107.058594 294.460938 93.765625 295.046875 C 86.21875 295.378906 78.667969 295.65625 71.128906 296.253906 C 70.78125 296.28125 70.171875 296.492188 70.054688 296.871094 C 69.945312 297.238281 70.292969 297.433594 70.636719 297.425781 C 83.945312 297.34375 97.265625 296.492188 110.5625 295.914062 C 123.855469 295.335938 137.160156 294.796875 150.453125 294.152344 Z M 179.378906 295.785156 C 172.738281 295.285156 166.042969 295.425781 159.386719 295.683594 C 152.640625 295.941406 145.90625 296.382812 139.179688 296.917969 C 125.773438 297.980469 112.382812 299.367188 98.957031 300.234375 C 91.304688 300.730469 83.625 301.105469 75.960938 301.257812 C 75.664062 301.265625 75.089844 301.355469 74.964844 301.675781 C 74.835938 301.992188 75.074219 302.132812 75.382812 302.144531 C 88.828125 302.46875 102.253906 301.414062 115.636719 300.210938 C 129.046875 299.007812 142.441406 297.636719 155.882812 296.96875 C 163.554688 296.582031 171.230469 296.558594 178.910156 296.492188 C 179.359375 296.488281 180.210938 295.851562 179.378906 295.785156 Z M 160.085938 300.0625 C 153.59375 300.023438 147.085938 300.300781 140.601562 300.691406 C 137.316406 300.890625 134.03125 301.105469 130.742188 301.355469 C 127.464844 301.613281 124.09375 301.792969 120.859375 302.382812 C 120.628906 302.421875 120.230469 302.527344 120.160156 302.800781 C 120.101562 303.046875 120.300781 303.1875 120.542969 303.195312 C 123.753906 303.207031 127 302.816406 130.195312 302.597656 C 133.484375 302.371094 136.769531 302.105469 140.054688 301.894531 C 146.652344 301.476562 153.257812 301.128906 159.847656 300.660156 C 160.210938 300.628906 160.679688 300.0625 160.085938 300.0625 Z M 59.15625 272.210938 C 58.03125 264.71875 57.027344 257.207031 56.171875 249.683594 C 55.933594 247.59375 55.710938 245.503906 55.476562 243.414062 C 55.238281 241.238281 55.074219 239.027344 54.480469 236.914062 C 54.390625 236.597656 53.542969 236.820312 53.523438 237.105469 C 53.214844 240.839844 53.855469 244.710938 54.261719 248.421875 C 54.675781 252.191406 55.117188 255.953125 55.601562 259.710938 C 56.570312 267.277344 57.703125 274.820312 58.984375 282.339844 C 59.335938 284.417969 59.695312 286.488281 60.070312 288.558594 C 60.460938 290.738281 60.796875 292.910156 61.492188 295.019531 C 61.636719 295.464844 62.800781 295.125 62.769531 294.679688 C 62.539062 290.910156 61.601562 287.15625 60.964844 283.4375 C 60.320312 279.695312 59.722656 275.960938 59.15625 272.210938 Z M 59.15625 272.210938 " fill-opacity="1" fill-rule="nonzero"/></svg>